<svg width="29" height="28" viewBox="0 0 29 28" fill="none" xmlns="http://www.w3.org/2000/svg">
<g clip-path="url(#clip0_5_1014)">
<path d="M28.5 14C28.5 17.713 27.025 21.274 24.3995 23.8995C21.774 26.525 18.213 28 14.5 28C10.787 28 7.22601 26.525 4.60051 23.8995C1.975 21.274 0.5 17.713 0.5 14C0.5 10.287 1.975 6.72601 4.60051 4.10051C7.22601 1.475 10.787 0 14.5 0C18.213 0 21.774 1.475 24.3995 4.10051C27.025 6.72601 28.5 10.287 28.5 14ZM15.0022 10.3355C13.6396 10.9025 10.9178 12.075 6.83675 13.853C6.17525 14.1155 5.82817 14.3733 5.7955 14.6265C5.743 15.0517 6.27675 15.2198 7.003 15.449L7.30925 15.5453C8.02325 15.778 8.98575 16.0492 9.4845 16.0597C9.9395 16.0714 10.4458 15.8848 11.0035 15.4998C14.8173 12.9261 16.7855 11.6252 16.908 11.5972C16.9955 11.5763 17.118 11.5518 17.1985 11.6252C17.279 11.6988 17.272 11.8352 17.2633 11.872C17.2108 12.0977 15.116 14.0437 14.0327 15.0518C13.695 15.3667 13.4552 15.589 13.4062 15.6398C13.2984 15.7501 13.1887 15.8586 13.0772 15.9653C12.4122 16.6058 11.9152 17.0853 13.1035 17.8693C13.6757 18.2473 14.1342 18.557 14.591 18.8685C15.088 19.208 15.585 19.5457 16.229 19.9692C16.3923 20.0766 16.5498 20.1857 16.7015 20.2965C17.2808 20.7095 17.804 21.0805 18.4463 21.021C18.8207 20.986 19.2075 20.636 19.4035 19.586C19.8673 17.1063 20.779 11.7355 20.989 9.52175C21.0022 9.33773 20.9946 9.15281 20.9662 8.9705C20.9493 8.82351 20.8782 8.68812 20.7668 8.59075C20.6073 8.48126 20.4176 8.42436 20.2243 8.428C19.6992 8.43675 18.889 8.7185 15.0022 10.3355Z" fill="white"/>
</g>
<defs>
<clipPath id="clip0_5_1014">
<rect width="28" height="28" fill="white" transform="translate(0.5)"/>
</clipPath>
</defs>
</svg>
