<svg width="100" height="28" viewBox="0 0 100 28" fill="none" xmlns="http://www.w3.org/2000/svg">
<g clip-path="url(#clip0_5_1013)">
<path d="M28.5 14C28.5 17.713 27.025 21.274 24.3995 23.8995C21.774 26.525 18.213 28 14.5 28C10.787 28 7.22601 26.525 4.60051 23.8995C1.975 21.274 0.5 17.713 0.5 14C0.5 10.287 1.975 6.72601 4.60051 4.10051C7.22601 1.475 10.787 0 14.5 0C18.213 0 21.774 1.475 24.3995 4.10051C27.025 6.72601 28.5 10.287 28.5 14ZM15.0022 10.3355C13.6396 10.9025 10.9178 12.075 6.83675 13.853C6.17525 14.1155 5.82817 14.3733 5.7955 14.6265C5.743 15.0517 6.27675 15.2198 7.003 15.449L7.30925 15.5453C8.02325 15.778 8.98575 16.0492 9.4845 16.0597C9.9395 16.0714 10.4458 15.8848 11.0035 15.4998C14.8173 12.9261 16.7855 11.6252 16.908 11.5972C16.9955 11.5763 17.118 11.5518 17.1985 11.6252C17.279 11.6988 17.272 11.8352 17.2633 11.872C17.2108 12.0977 15.116 14.0437 14.0327 15.0518C13.695 15.3667 13.4552 15.589 13.4062 15.6398C13.2984 15.7501 13.1887 15.8586 13.0772 15.9653C12.4122 16.6058 11.9152 17.0853 13.1035 17.8693C13.6757 18.2473 14.1342 18.557 14.591 18.8685C15.088 19.208 15.585 19.5457 16.229 19.9692C16.3923 20.0766 16.5498 20.1857 16.7015 20.2965C17.2808 20.7095 17.804 21.0805 18.4463 21.021C18.8207 20.986 19.2075 20.636 19.4035 19.586C19.8673 17.1063 20.779 11.7355 20.989 9.52175C21.0022 9.33773 20.9946 9.15281 20.9662 8.9705C20.9493 8.82351 20.8782 8.68812 20.7668 8.59075C20.6073 8.48126 20.4176 8.42436 20.2243 8.428C19.6992 8.43675 18.889 8.7185 15.0022 10.3355Z" fill="white"/>
</g>
<path d="M36.74 9.4C36.932 9.42133 37.188 9.432 37.508 9.432H44.212C44.6067 9.432 44.8573 9.42133 44.964 9.4V11.896H44.436C44.436 11.2453 44.2813 10.7653 43.972 10.456C43.6733 10.1467 43.172 9.992 42.468 9.992H42.148C42.0413 9.992 41.9773 10.0507 41.956 10.168V18.088C41.956 18.3227 42.0627 18.44 42.276 18.44L43.124 18.408V19H38.58V18.408L39.444 18.44C39.54 18.44 39.6147 18.4027 39.668 18.328C39.7213 18.2427 39.748 18.1467 39.748 18.04V10.184C39.748 10.056 39.684 9.992 39.556 9.992H39.268C38.564 9.992 38.0573 10.1467 37.748 10.456C37.4387 10.7653 37.284 11.2453 37.284 11.896H36.74V9.4ZM48.4364 12.04C49.407 12.04 50.1804 12.3067 50.7564 12.84C51.343 13.3627 51.6417 14.1093 51.6524 15.08V15.672H47.0444C47.0444 16.5893 47.2097 17.288 47.5404 17.768C47.8817 18.248 48.3884 18.4933 49.0604 18.504C49.5617 18.504 49.9937 18.3813 50.3564 18.136C50.719 17.88 50.9857 17.5707 51.1564 17.208L51.5884 17.512C51.343 18.0347 50.9484 18.44 50.4044 18.728C49.871 19.016 49.2257 19.16 48.4684 19.16C47.199 19.16 46.271 18.872 45.6844 18.296C45.0977 17.72 44.8044 16.8293 44.8044 15.624C44.8044 14.3973 45.1084 13.496 45.7164 12.92C46.3244 12.3333 47.231 12.04 48.4364 12.04ZM48.3884 12.584C47.9297 12.584 47.5937 12.824 47.3804 13.304C47.167 13.7733 47.0604 14.3867 47.0604 15.144H49.1884C49.295 15.144 49.375 15.1067 49.4284 15.032C49.4817 14.9573 49.5084 14.8187 49.5084 14.616C49.5084 13.9227 49.4177 13.4107 49.2364 13.08C49.0657 12.7493 48.783 12.584 48.3884 12.584ZM52.2888 18.456L52.8168 18.488C52.9554 18.456 53.0247 18.3547 53.0247 18.184V8.12C53.0247 7.93867 52.9608 7.82667 52.8328 7.784L52.3048 7.816V7.304H55.1208V18.184C55.1208 18.3973 55.1901 18.4987 55.3288 18.488L55.8568 18.456V19H52.2888V18.456ZM60.1239 12.04C61.0945 12.04 61.8679 12.3067 62.4439 12.84C63.0305 13.3627 63.3292 14.1093 63.3399 15.08V15.672H58.7319C58.7319 16.5893 58.8972 17.288 59.2279 17.768C59.5692 18.248 60.0759 18.4933 60.7479 18.504C61.2492 18.504 61.6812 18.3813 62.0439 18.136C62.4065 17.88 62.6732 17.5707 62.8439 17.208L63.2759 17.512C63.0305 18.0347 62.6359 18.44 62.0919 18.728C61.5585 19.016 60.9132 19.16 60.1559 19.16C58.8865 19.16 57.9585 18.872 57.3719 18.296C56.7852 17.72 56.4919 16.8293 56.4919 15.624C56.4919 14.3973 56.7959 13.496 57.4039 12.92C58.0119 12.3333 58.9185 12.04 60.1239 12.04ZM60.0759 12.584C59.6172 12.584 59.2812 12.824 59.0679 13.304C58.8545 13.7733 58.7479 14.3867 58.7479 15.144H60.8759C60.9825 15.144 61.0625 15.1067 61.1159 15.032C61.1692 14.9573 61.1959 14.8187 61.1959 14.616C61.1959 13.9227 61.1052 13.4107 60.9239 13.08C60.7532 12.7493 60.4705 12.584 60.0759 12.584ZM70.2163 11.816C70.0883 11.816 69.9389 11.864 69.7683 11.96C69.5976 12.056 69.4589 12.1733 69.3523 12.312C70.2803 12.6747 70.7443 13.3147 70.7443 14.232C70.7443 14.936 70.4616 15.4853 69.8963 15.88C69.3309 16.264 68.5683 16.456 67.6083 16.456C67.1603 16.456 66.7389 16.408 66.3443 16.312C66.1203 16.504 66.0082 16.7013 66.0082 16.904C66.0082 17.2453 66.3176 17.416 66.9363 17.416H68.5203C69.4909 17.416 70.2323 17.608 70.7443 17.992C71.2563 18.3653 71.5123 18.9733 71.5123 19.816C71.5123 20.7867 71.1443 21.544 70.4083 22.088C69.6723 22.6427 68.6749 22.92 67.4163 22.92C66.4029 22.92 65.6189 22.7493 65.0643 22.408C64.5096 22.0773 64.2323 21.5973 64.2323 20.968C64.2323 20.1787 64.7656 19.5493 65.8323 19.08C65.4163 18.9947 65.0803 18.8453 64.8243 18.632C64.5789 18.408 64.4563 18.1307 64.4563 17.8C64.4563 17.576 64.5096 17.3733 64.6163 17.192C64.7229 17.0107 64.9203 16.792 65.2083 16.536L65.7043 16.104C64.8616 15.7307 64.4403 15.1227 64.4403 14.28C64.4403 13.576 64.7283 13.0267 65.3043 12.632C65.8909 12.2373 66.6643 12.04 67.6243 12.04C68.1043 12.04 68.5203 12.0827 68.8723 12.168C69.5443 11.2827 70.2109 10.84 70.8723 10.84C71.2243 10.84 71.4749 10.9253 71.6243 11.096C71.7736 11.256 71.8483 11.4427 71.8483 11.656C71.8483 11.8373 71.7949 12.0027 71.6883 12.152C71.5816 12.3013 71.4109 12.376 71.1763 12.376C71.0163 12.376 70.8989 12.3493 70.8243 12.296C70.7496 12.2427 70.6696 12.1627 70.5843 12.056C70.5203 11.9707 70.4616 11.912 70.4083 11.88C70.3656 11.8373 70.3016 11.816 70.2163 11.816ZM67.5603 15.976C67.9443 15.976 68.2109 15.848 68.3602 15.592C68.5203 15.3253 68.6003 14.888 68.6003 14.28C68.6003 13.672 68.5203 13.24 68.3602 12.984C68.2109 12.7173 67.9496 12.584 67.5763 12.584C67.2136 12.584 66.9576 12.712 66.8083 12.968C66.6589 13.2133 66.5843 13.656 66.5843 14.296C66.5843 14.9253 66.6536 15.3627 66.7923 15.608C66.9416 15.8533 67.1976 15.976 67.5603 15.976ZM66.6803 19.176H66.6483C66.3816 19.2827 66.1576 19.4907 65.9763 19.8C65.7949 20.12 65.7043 20.4613 65.7043 20.824C65.7043 21.3147 65.8536 21.6987 66.1523 21.976C66.4509 22.2533 66.9149 22.392 67.5443 22.392C68.2269 22.392 68.7656 22.2107 69.1603 21.848C69.5656 21.4853 69.7683 21.0107 69.7683 20.424C69.7683 19.9973 69.6509 19.6827 69.4163 19.48C69.1816 19.2773 68.8029 19.176 68.2803 19.176H66.6803ZM76.8681 12.04C77.3268 12.04 77.7001 12.1733 77.9881 12.44C78.2868 12.7067 78.4361 13.0533 78.4361 13.48C78.4361 13.8 78.3401 14.04 78.1481 14.2C77.9668 14.36 77.7428 14.44 77.4761 14.44C77.2521 14.44 77.0495 14.3867 76.8681 14.28C76.6975 14.1627 76.6121 13.9973 76.6121 13.784C76.6121 13.7093 76.6335 13.5973 76.6761 13.448C76.7081 13.256 76.7241 13.1493 76.7241 13.128C76.7241 12.8933 76.6228 12.776 76.4201 12.776C76.1428 12.776 75.8921 12.936 75.6681 13.256C75.4548 13.5653 75.2895 13.9547 75.1721 14.424C75.0548 14.8933 74.9908 15.3467 74.9801 15.784V18.184C74.9801 18.3867 75.0495 18.488 75.1881 18.488L76.2921 18.456V19H72.2281V18.456L72.6761 18.488C72.8148 18.488 72.8841 18.3867 72.8841 18.184V13.016C72.8841 12.8027 72.8148 12.696 72.6761 12.696L72.1641 12.728V12.2H75.0761C75.0548 12.264 75.0335 12.3707 75.0121 12.52C74.9908 12.6587 74.9801 12.7973 74.9801 12.936V13.672C75.3641 12.584 75.9935 12.04 76.8681 12.04ZM85.8273 18.456V19H82.9153C82.9579 18.744 82.9793 18.5467 82.9793 18.408L82.9953 17.976C82.5259 18.712 81.7899 19.08 80.7873 19.08C80.1153 19.08 79.6033 18.9307 79.2513 18.632C78.9099 18.3227 78.7393 17.8693 78.7393 17.272C78.7393 16.4933 79.0806 15.9173 79.7633 15.544C80.4459 15.1707 81.5233 14.984 82.9953 14.984V13.864C82.9953 13.4587 82.9259 13.144 82.7873 12.92C82.6486 12.696 82.3606 12.584 81.9233 12.584C81.5499 12.584 81.2833 12.648 81.1233 12.776C80.9739 12.904 80.8993 13.0587 80.8993 13.24C80.8993 13.3787 80.9259 13.5013 80.9793 13.608C81.0219 13.7573 81.0433 13.864 81.0433 13.928C81.0433 14.1627 80.9579 14.344 80.7873 14.472C80.6273 14.6 80.4193 14.664 80.1633 14.664C79.8646 14.664 79.6193 14.5787 79.4273 14.408C79.2459 14.2267 79.1553 14.0027 79.1553 13.736C79.1553 13.224 79.4219 12.8133 79.9553 12.504C80.4886 12.1947 81.2086 12.04 82.1153 12.04C84.0993 12.04 85.0913 12.7493 85.0913 14.168V18.184C85.0913 18.3867 85.1606 18.488 85.2993 18.488L85.8273 18.456ZM81.6993 18.136C82.0299 18.136 82.3126 17.9973 82.5473 17.72C82.7926 17.432 82.9419 17.0587 82.9953 16.6V15.544C82.2699 15.544 81.7419 15.672 81.4113 15.928C81.0806 16.184 80.9153 16.568 80.9153 17.08C80.9153 17.784 81.1766 18.136 81.6993 18.136ZM98.736 18.456V19H95.12V18.456L95.696 18.488C95.8347 18.456 95.904 18.3547 95.904 18.184V14.312C95.904 13.768 95.8613 13.3787 95.776 13.144C95.7013 12.9093 95.536 12.792 95.28 12.792C95.0453 12.792 94.7947 12.9093 94.528 13.144C94.272 13.3787 94.0533 13.72 93.872 14.168C93.6907 14.616 93.5947 15.144 93.584 15.752V18.184C93.584 18.3867 93.6533 18.488 93.792 18.488L94.352 18.456V19H90.704V18.456L91.28 18.488C91.4187 18.456 91.488 18.3547 91.488 18.184V14.312C91.488 13.7467 91.4453 13.352 91.36 13.128C91.2747 12.904 91.0987 12.792 90.832 12.792C90.608 12.792 90.368 12.904 90.112 13.128C89.8667 13.352 89.6533 13.6773 89.472 14.104C89.2907 14.52 89.184 15.016 89.152 15.592V18.184C89.152 18.3973 89.2213 18.4987 89.36 18.488L89.936 18.456V19H86.32V18.456L86.848 18.488C86.9867 18.456 87.056 18.3547 87.056 18.184V13.016C87.056 12.8347 86.9867 12.728 86.848 12.696L86.32 12.728V12.2H89.248C89.1947 12.36 89.168 12.5413 89.168 12.744V13.64C89.392 13.1387 89.712 12.7493 90.128 12.472C90.544 12.184 91.04 12.04 91.616 12.04C92.192 12.04 92.6347 12.1733 92.944 12.44C93.264 12.7067 93.4613 13.1387 93.536 13.736C93.76 13.192 94.0853 12.776 94.512 12.488C94.9387 12.1893 95.4453 12.04 96.032 12.04C96.7147 12.04 97.2107 12.2267 97.52 12.6C97.84 12.9627 98 13.5387 98 14.328V18.184C98 18.3867 98.0693 18.488 98.208 18.488L98.736 18.456Z" fill="white"/>
<defs>
<clipPath id="clip0_5_1013">
<rect width="28" height="28" fill="white" transform="translate(0.5)"/>
</clipPath>
</defs>
</svg>
