<svg width="86" height="28" viewBox="0 0 86 28" fill="none" xmlns="http://www.w3.org/2000/svg">
<rect x="0.5" width="28" height="28" rx="2" fill="white"/>
<path d="M17.0764 12.6797L23.3057 5H20.5254L15.7709 10.8653L11.5529 5H5.5L12.5626 14.819L5.92524 23H8.70648L13.8681 16.637L18.4471 23H24.5L17.0764 12.6797ZM14.9231 15.3347L13.6157 13.5176L8.54 6.4643H10.63L14.7268 12.1496L16.0323 13.9676L21.4772 21.5357H19.3872L14.9231 15.3347Z" fill="black"/>
<path d="M36.74 9.4C36.932 9.42133 37.188 9.432 37.508 9.432H44.212C44.6067 9.432 44.8573 9.42133 44.964 9.4V11.896H44.436C44.436 11.2453 44.2813 10.7653 43.972 10.456C43.6733 10.1467 43.172 9.992 42.468 9.992H42.148C42.0413 9.992 41.9773 10.0507 41.956 10.168V18.088C41.956 18.3227 42.0627 18.44 42.276 18.44L43.124 18.408V19H38.58V18.408L39.444 18.44C39.54 18.44 39.6147 18.4027 39.668 18.328C39.7213 18.2427 39.748 18.1467 39.748 18.04V10.184C39.748 10.056 39.684 9.992 39.556 9.992H39.268C38.564 9.992 38.0573 10.1467 37.748 10.456C37.4387 10.7653 37.284 11.2453 37.284 11.896H36.74V9.4ZM56.228 12.2V12.728L55.636 12.696C55.4867 12.696 55.3747 12.7867 55.3 12.968L52.932 19.16H52.18L50.228 14.584L48.196 19.16H47.492L45.236 12.904C45.172 12.7653 45.0813 12.696 44.964 12.696L44.292 12.728V12.2H48.356V12.728L47.652 12.696H47.62C47.524 12.696 47.4547 12.728 47.412 12.792C47.38 12.856 47.38 12.9307 47.412 13.016L48.724 16.696L50.676 12.12H51.444L53.332 16.6L54.66 12.968L54.692 12.84C54.692 12.7333 54.6227 12.6853 54.484 12.696L53.636 12.728V12.2H56.228ZM58.439 8.488C58.8017 8.488 59.095 8.57867 59.319 8.76C59.5537 8.94133 59.671 9.18133 59.671 9.48C59.671 9.78933 59.5537 10.0347 59.319 10.216C59.095 10.3973 58.8017 10.488 58.439 10.488C58.0763 10.488 57.7777 10.3973 57.543 10.216C57.319 10.0347 57.207 9.78933 57.207 9.48C57.207 9.18133 57.319 8.94133 57.543 8.76C57.7777 8.57867 58.0763 8.488 58.439 8.488ZM59.527 18.184C59.527 18.3973 59.5963 18.4987 59.735 18.488L60.263 18.456V19H56.695V18.456L57.223 18.488H57.255C57.3723 18.488 57.431 18.3867 57.431 18.184V13.016C57.431 12.8347 57.367 12.728 57.239 12.696L56.711 12.728V12.2H59.527V18.184ZM63.7941 12.2H65.3781V12.712H63.7941V17.608C63.7941 17.9813 63.8421 18.232 63.9381 18.36C64.0341 18.488 64.1835 18.552 64.3861 18.552C64.5141 18.552 64.6475 18.4987 64.7861 18.392C64.9355 18.2747 65.0475 18.12 65.1221 17.928L65.5541 18.168C65.4155 18.5093 65.1968 18.76 64.8981 18.92C64.6101 19.0693 64.2421 19.144 63.7941 19.144C63.1435 19.144 62.6315 19.0213 62.2581 18.776C61.8848 18.52 61.6981 18.12 61.6981 17.576V12.712H60.7381V12.2C61.1648 12.2 61.4901 12.1627 61.7141 12.088C61.9381 12.0027 62.1141 11.848 62.2421 11.624C62.3808 11.4 62.5088 11.048 62.6261 10.568H63.7941V12.2ZM68.9973 12.2H70.5813V12.712H68.9973V17.608C68.9973 17.9813 69.0453 18.232 69.1413 18.36C69.2373 18.488 69.3866 18.552 69.5893 18.552C69.7173 18.552 69.8506 18.4987 69.9893 18.392C70.1386 18.2747 70.2506 18.12 70.3253 17.928L70.7573 18.168C70.6186 18.5093 70.3999 18.76 70.1013 18.92C69.8133 19.0693 69.4453 19.144 68.9973 19.144C68.3466 19.144 67.8346 19.0213 67.4613 18.776C67.0879 18.52 66.9013 18.12 66.9013 17.576V12.712H65.9413V12.2C66.3679 12.2 66.6933 12.1627 66.9173 12.088C67.1413 12.0027 67.3173 11.848 67.4453 11.624C67.5839 11.4 67.7119 11.048 67.8293 10.568H68.9973V12.2ZM74.9364 12.04C75.907 12.04 76.6804 12.3067 77.2564 12.84C77.843 13.3627 78.1417 14.1093 78.1524 15.08V15.672H73.5444C73.5444 16.5893 73.7097 17.288 74.0404 17.768C74.3817 18.248 74.8884 18.4933 75.5604 18.504C76.0617 18.504 76.4937 18.3813 76.8564 18.136C77.219 17.88 77.4857 17.5707 77.6564 17.208L78.0884 17.512C77.843 18.0347 77.4484 18.44 76.9044 18.728C76.371 19.016 75.7257 19.16 74.9684 19.16C73.699 19.16 72.771 18.872 72.1844 18.296C71.5977 17.72 71.3044 16.8293 71.3044 15.624C71.3044 14.3973 71.6084 13.496 72.2164 12.92C72.8244 12.3333 73.731 12.04 74.9364 12.04ZM74.8884 12.584C74.4297 12.584 74.0937 12.824 73.8804 13.304C73.667 13.7733 73.5604 14.3867 73.5604 15.144H75.6884C75.795 15.144 75.875 15.1067 75.9284 15.032C75.9817 14.9573 76.0084 14.8187 76.0084 14.616C76.0084 13.9227 75.9177 13.4107 75.7364 13.08C75.5657 12.7493 75.283 12.584 74.8884 12.584ZM83.5088 12.04C83.9674 12.04 84.3408 12.1733 84.6288 12.44C84.9274 12.7067 85.0768 13.0533 85.0768 13.48C85.0768 13.8 84.9808 14.04 84.7888 14.2C84.6074 14.36 84.3834 14.44 84.1168 14.44C83.8928 14.44 83.6901 14.3867 83.5088 14.28C83.3381 14.1627 83.2528 13.9973 83.2528 13.784C83.2528 13.7093 83.2741 13.5973 83.3168 13.448C83.3488 13.256 83.3648 13.1493 83.3648 13.128C83.3648 12.8933 83.2634 12.776 83.0608 12.776C82.7834 12.776 82.5328 12.936 82.3088 13.256C82.0954 13.5653 81.9301 13.9547 81.8128 14.424C81.6954 14.8933 81.6314 15.3467 81.6208 15.784V18.184C81.6208 18.3867 81.6901 18.488 81.8288 18.488L82.9328 18.456V19H78.8688V18.456L79.3168 18.488C79.4554 18.488 79.5247 18.3867 79.5247 18.184V13.016C79.5247 12.8027 79.4554 12.696 79.3168 12.696L78.8048 12.728V12.2H81.7168C81.6954 12.264 81.6741 12.3707 81.6528 12.52C81.6314 12.6587 81.6208 12.7973 81.6208 12.936V13.672C82.0048 12.584 82.6341 12.04 83.5088 12.04Z" fill="white"/>
</svg>
