<svg width="29" height="28" viewBox="0 0 29 28" fill="none" xmlns="http://www.w3.org/2000/svg">
<rect x="0.5" width="28" height="28" rx="2" fill="white"/>
<path fill-rule="evenodd" clip-rule="evenodd" d="M16.3546 11.7887C17.0138 11.4337 17.8526 10.9113 18.6924 10.1955C18.8695 10.5925 18.8889 10.939 18.7976 11.2187C18.733 11.4159 18.6111 11.5874 18.451 11.7238C18.2775 11.8713 18.0608 11.9786 17.8213 12.0366C17.3669 12.1472 16.8363 12.0826 16.3546 11.7887ZM16.4688 15.4252L17.3415 15.9695C15.5597 17.0477 15.0754 19.0499 14.5 21C13.9246 19.0499 13.4402 17.0477 11.6585 15.9695L12.5312 15.4252C12.6156 15.3908 12.6877 15.3283 12.7373 15.2469C12.7868 15.1655 12.8112 15.0692 12.807 14.9719C12.727 13.1455 13.1838 12.3379 13.7998 11.8308C14.0208 11.6491 14.262 11.5579 14.5 11.5579C14.7379 11.5579 14.9792 11.6491 15.2002 11.8308C15.8162 12.3379 16.273 13.1455 16.193 14.9719C16.1888 15.0692 16.2132 15.1655 16.2627 15.2469C16.3123 15.3283 16.3844 15.3908 16.4688 15.4252ZM14.5 3.5C15.5087 3.52924 16.5199 3.74067 17.3974 4.15198C18.0052 4.43717 18.5722 4.81389 19.0857 5.26436C19.3176 5.46773 19.5085 5.66419 19.7188 5.89036C20.2861 5.91154 21.1151 5.23109 21.5 4.59439C20.8376 6.93907 17.815 9.70793 15.7224 10.7674C15.7216 10.767 15.721 10.7665 15.7203 10.766C15.3448 10.4564 14.9224 10.3016 14.5 10.3016C14.0775 10.3016 13.6552 10.4564 13.2797 10.766C13.279 10.7664 13.2784 10.7671 13.2776 10.7674C11.1849 9.70793 8.16238 6.93907 7.5 4.59439C7.88481 5.23109 8.71384 5.91154 9.28111 5.89036C9.49151 5.66427 9.68245 5.46773 9.91425 5.26436C10.4277 4.81389 10.9948 4.43717 11.6025 4.15198C12.4801 3.74067 13.4913 3.52924 14.5 3.5ZM12.6454 11.7887C11.9862 11.4337 11.1473 10.9113 10.3076 10.1955C10.1305 10.5925 10.1111 10.939 10.2023 11.2187C10.267 11.4159 10.3889 11.5874 10.549 11.7238C10.7225 11.8713 10.9392 11.9786 11.1787 12.0366C11.6331 12.1472 12.1636 12.0826 12.6454 11.7887Z" fill="black"/>
<path fill-rule="evenodd" clip-rule="evenodd" d="M19.7715 9.60411C20.2482 9.13958 20.6683 8.62543 21.0061 8.16663L21.1776 8.47838C21.7299 9.54524 22.0169 10.6078 22.0169 11.8036L22.0157 13.7012L22.0261 14.6849C22.0661 17.0998 22.6072 19.5432 23.8332 21.7792L21.2682 19.7822L19.4533 22.6257L17.5467 20.8927L14.4998 25.6666L11.453 20.8928L9.54643 22.6258L7.73154 19.7823L5.1665 21.7792C6.39243 19.5432 6.93361 17.0999 6.97369 14.685L6.98406 13.7013L6.98287 11.8037C6.98287 10.6078 7.26976 9.54524 7.82221 8.47845L7.99369 8.1667C8.33147 8.6255 8.75147 9.13958 9.22828 9.60418L9.07939 9.90277C8.79013 10.4827 8.69436 11.1312 8.91969 11.7479C9.06495 12.1451 9.33006 12.4858 9.67184 12.7458C10.0037 12.9984 10.3964 13.1686 10.8076 13.258C11.0755 13.3162 11.3484 13.3402 11.6195 13.332C11.5562 13.6782 11.5286 14.0373 11.5268 14.4032L9.10724 15.7525L10.9744 16.763C11.1236 16.8438 11.2657 16.9364 11.3991 17.0397C12.9384 18.3742 13.8639 22.3219 14.4999 24.2501C15.136 22.3219 16.0614 18.3742 17.6008 17.0397C17.7342 16.9364 17.8763 16.8438 18.0255 16.763L19.8927 15.7525L17.473 14.4032C17.4712 14.0373 17.4436 13.6782 17.3804 13.332C17.6515 13.3402 17.9244 13.3162 18.1922 13.258C18.6034 13.1686 18.9962 12.9984 19.328 12.7458C19.6697 12.4858 19.9349 12.1451 20.0801 11.7479C20.3055 11.1312 20.2096 10.4828 19.9204 9.90277L19.7715 9.60418L19.7715 9.60411Z" fill="black"/>
</svg>
